PathFileType	4	(X/Y/Z)	D:\Long Term Storage\D'Arcy Smith\Coord9.trc
DataRate	CameraRate	NumFrames	NumMarkers	Units	OrigDataRate	OrigDataStartFrame	OrigNumFrames
120.00	120.00	      134	4	mm	120.00	1802	      4803
Frame#	Time	M1			M2			M3			M4			
		X1	Y1	Z1	X2	Y2	Z2	X3	Y3	Z3	X4	Y4	Z4	

1802	15.008	1045.56824	313.81662	564.36035	1618.74377	417.24911	271.28931							
1803	15.017	1044.74280	315.92572	571.38928	1621.68530	414.69254	274.88297							
1804	15.025	1044.15540	317.77927	575.98291	1624.47083	411.04227	279.63123							
1805	15.033	1044.16223	319.28247	578.18127	1626.82166	406.55231	285.72913							
1806	15.042	1044.59290	320.14774	577.61328	1629.45984	401.38132	292.89902							
1807	15.050	1045.78149	320.30627	574.68091	1632.53015	395.14996	301.46872							
1808	15.058	1047.25952	320.22562	569.25195	1634.88879	388.40253	311.07254							
1809	15.067	1049.48267	320.15591	561.81952	1637.17847	381.35242	321.94092							
1810	15.075	1051.92896	319.93457	552.73120	1639.58484	373.86862	334.00668							
1811	15.083	1054.65674	319.95074	542.10864	1641.86279	366.33325	347.22119							
1812	15.092	1057.73840	320.30557	530.39587	1644.30286	358.86188	361.65399							
1813	15.100	1061.16272	321.19202	517.48773	1645.96899	351.72543	377.61118							
1814	15.108	1063.93945	323.57639	503.65607	1647.59558	344.84869	394.53754							
1815	15.117	1067.16174	325.28772	489.84906	1648.62634	338.70416	412.76266							
1816	15.125	1070.01770	328.15686	475.86169	1649.21375	333.62643	431.93118							
1817	15.133	1073.31287	331.59564	461.68509	1648.91235	329.70071	451.54944							
1818	15.142	1075.79773	335.75104	447.47595	1648.23999	327.30023	471.57355							
1819	15.150	1078.73694	340.10373	434.14865	1647.03735	326.12982	491.48535							
1820	15.158	1081.40405	344.79810	420.74326	1645.25354	326.19101	510.97989							
1821	15.167	1083.50732	350.24936	407.52902	1643.30896	327.37698	529.51440							
1822	15.175	1085.70801	356.08868	394.87997	1640.95325	329.60190	547.04633							
1823	15.183	1087.37268	362.28055	382.58072	1638.54309	332.54385	563.39606							
1824	15.192	1088.86218	368.36002	370.90454	1636.11914	336.16208	578.44391							
1825	15.200	1089.84143	374.61716	359.45251	1633.77808	340.12024	592.31140							
1826	15.208	1091.25037	380.80081	348.98434	1631.56055	344.85052	604.67871							
1827	15.217	1091.96423	387.07376	338.72156	1629.48157	349.21082	615.23547							
1828	15.225	1092.67749	393.19717	329.27280	1627.36047	353.59421	624.04987							
1829	15.233	1092.85730	399.03830	320.29712	1625.40002	357.56998	630.82245							
1830	15.242	1092.80981	404.66925	311.59595	1622.98438	360.50684	635.73987							
1831	15.250	1092.75891	409.83514	303.65878	1620.83081	362.90942	638.59253							
1832	15.258	1092.29297	414.55319	296.27551	1619.14124	364.75922	639.51947							
1833	15.267	1091.82275	418.66931	289.36456	1617.00171	364.27081	638.04645							
1834	15.275	1091.09216	422.18201	283.24451	1615.05090	363.80099	634.83398							
1835	15.283	1089.77649	425.25763	277.65137	1613.76965	362.02658	629.19879							
1836	15.292	1088.83215	427.18677	273.01389	1611.62317	359.57104	622.20416							
1837	15.300	1087.69250	428.20190	269.18295	1610.26855	356.51031	613.09149							
1838	15.308	1086.12659	428.25623	266.49084	1608.06934	352.82352	602.23804							
1839	15.317	1084.52734	427.24142	265.00717	1606.38062	349.39633	589.99457							
1840	15.325	1082.88855	424.92529	264.94714	1604.89160	346.04956	576.33636							
1841	15.333	1080.82874	421.70221	266.17780	1603.64929	343.01840	561.49799							
1842	15.342	1078.96191	417.13226	269.24527	1602.25830	340.68027	545.53418							
1843	15.350	1076.76074	411.40762	273.71786	1601.54199	338.93213	528.98798							
1844	15.358	1074.71143	404.54486	280.14301	1600.74353	337.76459	511.90152							
1845	15.367	1072.31702	396.64282	288.28082	1600.30298	337.26331	494.36197							
1846	15.375	1069.88489	388.10004	297.99051	1600.39587	337.15613	476.49295							
1847	15.383	1067.42578	379.11783	309.45493	1600.61523	338.11441	458.77841							
1848	15.392	1064.95776	370.04785	322.37167	1600.92493	339.73767	441.23862							
1849	15.400	1062.69226	361.15445	336.88669	1601.51306	342.04092	424.02139							
1850	15.408	1060.29871	352.50085	352.49200	1602.21509	344.82767	407.66653							
1851	15.417	1058.15710	344.76462	368.88916	1603.02795	347.95877	392.44620							
1852	15.425	1056.20081	337.97556	386.10104	1603.89172	351.40985	378.79675							
1853	15.433	1054.22217	332.48965	403.50076	1605.13354	355.07907	367.00891							
1854	15.442	1052.63367	327.75348	421.00775	1606.25830	358.96448	357.09985							
1855	15.450	1050.94641	324.84903	437.57584	1607.51636	362.39880	349.29599							
1856	15.458	1049.72705	322.58630	453.75558	1609.21057	365.33209	343.31125							
1857	15.467	1048.84778	321.29706	468.96762	1611.68066	367.51587	339.03870							
1858	15.475	1048.32239	320.98642	482.18527	1613.17322	368.81494	336.40140							
1859	15.483	1048.01257	321.27881	493.31616	1616.59546	370.23227	335.41766							
1860	15.492	1047.97302	321.99280	501.95547	1619.23279	370.61108	335.74847							
1861	15.500	1048.47742	322.84308	507.66461	1622.39832	370.40497	337.15729							
1862	15.508	1049.30078	323.58710	510.32220	1625.31860	369.44730	339.63651							
1863	15.517	1050.50110	324.27756	510.17487	1628.51672	367.85303	343.20087							
1864	15.525	1052.20459	324.92517	507.66858	1630.65906	365.38565	347.33276							
1865	15.533	1054.05383	325.73947	503.08124	1634.62170	363.32928	352.43616							
1866	15.542	1056.14709	326.57053	496.46622	1637.85217	360.44003	358.14468							
1867	15.550	1058.59998	327.67926	488.52267	1641.23206	357.16525	364.57465							
1868	15.558	1060.95410	329.08099	479.42496	1644.38354	353.66101	371.80869							
1869	15.567	1063.46936	331.00052	469.80933	1647.76270	350.04739	379.88901							
1870	15.575	1065.99548	333.33051	459.74515	1651.04810	346.19699	388.86386							
1871	15.583	1068.30688	336.18417	449.65741	1654.23523	342.44888	398.91812							
1872	15.592	1070.27319	339.65781	438.78326	1657.22400	338.76669	410.06445							
1873	15.600	1072.80127	342.82324	430.36276	1660.06067	335.97205	422.44119							
1874	15.608	1074.55103	347.00244	420.87616	1662.39380	333.24466	436.03839							
1875	15.617	1076.00964	351.47867	412.03421	1664.58179	330.80170	450.75949							
1876	15.625	1077.33521	356.24237	403.52954	1666.36938	329.77591	466.66635							
1877	15.633	1078.39612	361.14093	395.48651	1667.89685	328.61343	482.90073							
1878	15.642	1079.21399	366.26913	387.58374	1668.81262	328.30139	499.62048							
1879	15.650	1080.18909	371.37943	379.92932	1669.46667	329.80753	516.72473							
1880	15.658	1081.08337	376.31772	371.94098	1669.31067	331.40457	533.66583							
1881	15.667	1081.98206	381.58704	364.66211	1668.26465	333.18222	550.17346							
1882	15.675	1082.92578	386.85550	357.13998	1667.23572	336.41891	566.30890							
1883	15.683	1083.82520	392.20035	349.69019	1665.45679	339.52710	581.53339							
1884	15.692	1084.60925	397.56729	342.15909	1663.03125	343.12643	596.08002							
1885	15.700	1085.52393	402.72525	334.63248	1660.19714	346.78262	609.60767							
1886	15.708	1086.35144	407.95514	326.86368	1657.27271	350.81366	622.02771							
1887	15.717	1087.44458	413.16861	319.40717	1654.06055	354.92502	633.20404							
1888	15.725	1088.30713	418.04868	312.12170	1650.69910	359.11636	643.31451							
1889	15.733	1088.78210	423.24893	304.72748	1647.42322	363.20605	652.04346							
1890	15.742	1089.78101	427.56351	297.84875	1644.02185	367.13037	659.43005							
1891	15.750	1090.41541	431.86685	291.18002	1640.50122	370.77292	665.24420							
1892	15.758	1091.04272	435.65552	284.76743	1637.10693	373.87430	669.29938							
1893	15.767	1091.48279	438.97867	278.69861	1633.65637	376.06076	671.61780							
1894	15.775	1091.70032	441.80124	273.01260	1630.16943	377.47955	671.91760							
1895	15.783	1091.99805	444.03326	267.76709	1626.75525	377.98853	670.35950							
1896	15.792	1091.95532	445.65427	262.98062	1623.26575	377.32068	666.86786							
1897	15.800	1091.65027	446.54379	257.84171	1620.01575	375.60437	661.26129							
1898	15.808	1091.21680	447.12988	253.72066	1616.87842	372.65891	653.30194							
1899	15.817	1090.52356	446.45984	250.78496	1614.43945	369.20032	643.25867							
1900	15.825	1089.78308	444.79166	248.55624	1612.55542	365.53693	631.33044							
1901	15.833	1088.82764	442.18677	247.22124	1610.72168	361.03036	617.40350							
1902	15.842	1087.63220	438.49847	246.81415	1608.82275	356.85501	601.61078							
1903	15.850	1085.98059	433.60083	247.59769	1607.55627	352.85822	584.32526							
1904	15.858	1084.21973	427.65909	249.71199	1606.57800	349.36917	565.66644							
1905	15.867	1082.04309	420.75888	252.88933	1606.20837	346.70184	545.81598							
1906	15.875	1080.34778	412.14401	259.71490	1605.51514	344.93820	524.93231							
1907	15.883	1077.95117	403.45450	266.72504	1605.23206	343.66562	503.60226							
1908	15.892	1075.31982	394.44409	275.17337	1605.24182	343.18613	481.84750							
1909	15.900	1072.42859	385.01001	285.57260	1605.22766	343.97586	460.04489							
1910	15.908	1069.53821	375.45779	297.36053	1605.26392	346.01144	438.55887							
1911	15.917	1066.21118	366.14206	310.55374	1605.56604	348.91840	417.67786							
1912	15.925	1062.78052	357.05234	325.32544	1605.85376	352.61237	398.09299							
1913	15.933	1059.23657	348.36575	341.11472	1606.06995	357.05115	380.47086							
1914	15.942	1055.49609	340.48303	358.17773	1606.36877	361.85260	364.88525							
1915	15.950	1051.76904	333.72919	375.79416	1606.90442	367.12579	351.65247							
1916	15.958	1047.99536	327.79803	394.36188	1608.30457	372.09042	340.75977							
1917	15.967	1043.95215	323.47653	412.88626	1609.45251	377.05164	332.27393							
1918	15.975	1040.64551	319.89233	431.94012	1610.89441	381.12769	325.92181							
1919	15.983	1036.84802	318.36380	449.61954	1612.80823	384.47870	321.35425							
1920	15.992	1034.22266	317.10574	467.99780	1615.14148	387.00980	318.56177							
1921	16.000	1031.83423	316.71530	484.86453	1616.97998	388.57840	317.42349							
1922	16.008	1030.00525	317.17813	500.47440	1619.72913	389.54858	317.48160							
1923	16.017	1028.64368	317.95410	514.28107	1621.53784	389.38007	318.80649							
1924	16.025	1028.22070	318.70966	526.70300	1624.19653	388.70132	321.00681							
1925	16.033	1027.96899	320.13803	535.68958	1626.45117	387.01904	324.11392							
1926	16.042	1028.61865	321.49896	542.18890	1628.50854	384.57202	327.88721							
1927	16.050	1029.70752	322.37982	545.59204	1629.61389	381.38385	332.37314							
1928	16.058	1031.75867	323.12024	546.15063	1632.16052	378.02603	337.65610							
1929	16.067	1034.12598	323.57898	543.66711	1633.90637	373.91779	343.43597							
1930	16.075	1037.28699	323.96780	538.24695	1635.40015	369.32187	350.04471							
1931	16.083	1040.60791	324.23605	529.97949	1637.23230	364.94363	357.52710							
1932	16.092	1044.57080	324.70541	519.84100	1638.47571	359.13943	366.04340							
1933	16.100	1048.42334	326.09210	506.84363	1639.82959	353.68994	375.66470							
1934	16.108	1052.75269	327.93704	493.25079	1641.19495	348.33038	386.60513							
1935	16.117	1057.17810	330.22815	478.43051	1642.19592	343.20709	398.98590							
